<svg t="1752591763277" class="icon" viewBox="0 0 1024 1024" version="1.1" xmlns="http://www.w3.org/2000/svg" p-id="1137" width="200" height="200"><path d="M128 416V192a64 64 0 0 1 64-64h224a64 64 0 0 1 64 64v224a64 64 0 0 1-64 64H192a64 64 0 0 1-64-64z m416-112a176 176 0 1 1 352 0 176 176 0 0 1-352 0zM128 832V608a64 64 0 0 1 64-64h224a64 64 0 0 1 64 64V832a64 64 0 0 1-64 64H192a64 64 0 0 1-64-64z m416 0V608a64 64 0 0 1 64-64H832a64 64 0 0 1 64 64V832a64 64 0 0 1-64 64H608a64 64 0 0 1-64-64z" fill="#263140" p-id="1138"></path></svg>